<svg width="16" height="16" viewBox="0 0 16 16" fill="none" xmlns="http://www.w3.org/2000/svg">
<path d="M15 1H1V2H3V4H1V12H3V14H1V15H15V14H13V12H15V4H13V2H15V1ZM11 2V4H9V2H11ZM11 12V14H9V12H11ZM7 2V4H5V2H7ZM7 12V14H5V12H7ZM6 6.107C6.00217 5.97641 6.0384 5.84865 6.10512 5.73637C6.17183 5.62409 6.2667 5.53117 6.38036 5.46682C6.49401 5.40247 6.6225 5.36891 6.7531 5.36947C6.88371 5.37002 7.0119 5.40468 7.125 5.47L10.125 7.353C10.2376 7.41922 10.331 7.51371 10.3958 7.6271C10.4607 7.74049 10.4948 7.86886 10.4948 7.9995C10.4948 8.13014 10.4607 8.25851 10.3958 8.3719C10.331 8.48529 10.2376 8.57978 10.125 8.646L7.125 10.529C7.0119 10.5943 6.88371 10.629 6.7531 10.6295C6.6225 10.6301 6.49401 10.5965 6.38036 10.5322C6.2667 10.4678 6.17183 10.3749 6.10512 10.2626C6.0384 10.1503 6.00217 10.0226 6 9.892V6.107Z" fill="url(#paint0_linear_4_2)"/>
<defs>
<linearGradient id="paint0_linear_4_2" x1="-1.53269e-07" y1="2" x2="-1.53269e-07" y2="14" gradientUnits="userSpaceOnUse">
<stop stop-color="#B9FF8D"/>
<stop offset="0.4" stop-color="#64FF64"/>
<stop offset="0.6" stop-color="#32CD32"/>
<stop offset="1" stop-color="#00A300"/>
</linearGradient>
</defs>
</svg>
